<?xml version="1.0" encoding="UTF-8"?>
<svg id="Layer_1" data-name="Layer 1" xmlns="http://www.w3.org/2000/svg" viewBox="0 0 283.46 283.46">
  <defs>
    <style>
      .cls-1 {
        fill: #fdb515;
      }

      .cls-2 {
        fill: #852519;
      }

      .cls-3 {
        fill: #fffbd2;
        fill-rule: evenodd;
      }
    </style>
  </defs>
  <rect class="cls-2" x="0" width="283.46" height="283.46"/>
  <g>
    <g>
      <path class="cls-3" d="M167.35,233.07c-2.44-10.25-4.84-27.33-7.43-36.31-3.16-10.94-16.68-38.71-15.88-47.47,.57-6,2.7-11.9,6.29-17.06,3.29-4.7,6.42-9.5,9.57-14.3,1.85-2.83,3.69-5.67,4.5-9.03,.17-.7,.54-1.51,1.36-1.44,.82,.06,.89,.81,1.11,1.6,.81,2.95,2.49,5.53,4.14,8.08,2.95,4.53,5.82,9.14,9,13.51,3.46,4.72,7.3,13.13,7.3,18.96,0,12.61-11.85,37.94-13.74,45.64-3.49,14.2-5.04,32.53-6.21,37.81Zm-1.64-115.97c-2.46,7.27-6.4,13.62-10.4,19.97-3.83,6.11-5.01,15.83-3.03,22.63,1.66,5.69,5.63,12.56,13.42,12.56,5.64-1.05,12.77-7.81,14.47-13.5,2.03-6.8-.3-15.43-4.09-21.57-3.96-6.41-7.44-13-10.37-20.07Z"/>
      <g>
        <path class="cls-3" d="M170.87,233.07c3.06-7.5,5.65-77.1,48.58-87.63,1.6-.6,2.4-.57,2.68,1.48,1.07,7.5,.11,14.78-1.89,22.02-1.98,7.22-4.91,14.05-8.53,20.57-7.95,14.25-37.57,42.26-40.85,43.55Z"/>
        <path class="cls-3" d="M173.57,239.08c8.45-13.23,33.23-42.32,74.46-41.51,1.67,.03,1.78,.68,1.13,2.07-3.35,7.21-8.66,12.83-14.66,17.8-12.48,10.3-26.62,17.3-42.41,20.93-6.09,1.4-14.26,1.75-18.52,.71Z"/>
      </g>
      <path class="cls-3" d="M160.11,227.5c.16,.2,.3,.41,0,.56-.07,.04-.25-.11-.39-.18,.14-.13,.27-.25,.39-.39Z"/>
      <path class="cls-3" d="M157.92,153.68c.05-3.37,.97-6.39,3.59-8.66,2.85-2.46,6.53-2.24,9.12,.47,3.92,4.09,3.83,12.17-.18,16.18-3.1,3.1-7.39,2.89-10.16-.53-1.76-2.16-2.41-4.7-2.37-7.45Z"/>
      <g>
        <path class="cls-3" d="M163.13,233.07c-3.06-7.5-5.64-77.1-48.59-87.63-1.6-.6-2.4-.57-2.69,1.48-1.06,7.5-.1,14.78,1.89,22.02,1.97,7.22,4.91,14.05,8.54,20.57,7.94,14.25,37.56,42.26,40.84,43.55Z"/>
        <path class="cls-3" d="M160.43,239.08c-8.46-13.23-33.24-42.32-74.47-41.51-1.68,.03-1.77,.68-1.14,2.07,3.35,7.21,8.66,12.83,14.67,17.8,12.47,10.3,26.61,17.3,42.41,20.93,6.08,1.4,14.25,1.75,18.53,.71Z"/>
      </g>
    </g>
    <path class="cls-1" d="M210.66,250.11c-64.43,20.77-133.12-13.45-153.41-76.42-20.28-62.97,15.51-130.85,79.95-151.6,18.57-5.99,37.48-7.4,55.49-4.88-23.98-6.45-50.18-6.28-75.75,1.96C47.67,41.49,9.2,114.46,31,182.15c21.81,67.69,95.65,104.46,164.92,82.14,25.58-8.24,46.95-23.39,62.65-42.63-13.15,12.58-29.33,22.46-47.9,28.45Z"/>
    <polygon class="cls-1" points="165.65 51.82 168.03 64.1 180.43 62.55 169.49 68.61 174.79 79.94 165.65 71.4 156.51 79.94 161.81 68.61 150.87 62.55 163.28 64.1 165.65 51.82"/>
  </g>
</svg>