<?xml version="1.0" encoding="UTF-8"?>
<svg id="Layer_1" data-name="Layer 1" xmlns="http://www.w3.org/2000/svg" viewBox="0 0 332.9 330.14">
  <defs>
    <style>
      .cls-1, .cls-2 {
        fill: #fffbd2;
      }

      .cls-3 {
        fill: #fdb515;
      }

      .cls-2 {
        fill-rule: evenodd;
      }
    </style>
  </defs>
  <g>
    <path class="cls-1" d="M23.4,226.09c-.09-1.06-.48-2.14-1.16-3.24-.68-1.11-1.69-2.11-3.05-3.01v-.47c.94,.05,2.08,.13,3.44,.24,1.36,.1,2.55,.15,3.58,.15,.94,0,1.86-.05,2.77-.15,.91-.11,1.86-.19,2.85-.24v.39c-1.17,.53-1.91,1.46-2.21,2.77-.31,1.32-.5,2.59-.6,3.81-.1,1.27-.14,2.55-.14,3.84v18.01c0,3.64-.09,6.99-.28,10.06-.18,3.06-.79,5.66-1.83,7.77-.75,1.58-1.74,2.85-2.97,3.79-1.24,.95-2.52,1.69-3.83,2.22-.94,.48-1.84,.87-2.7,1.19-.86,.31-1.74,.47-2.63,.47-.24,0-.49-.04-.77-.12-.28-.08-.42-.23-.42-.44s.12-.34,.35-.39c1.73-.68,3.3-1.44,4.71-2.26,1.4-.82,2.5-2.21,3.3-4.16,.47-1.22,.84-2.57,1.12-4.07,.29-1.5,.5-3.07,.63-4.71,.14-1.64,.23-3.28,.28-4.91,.04-1.64,.06-3.22,.06-4.76v-4.59c0-2.74-.04-5.61-.14-8.59-.09-2.98-.21-5.84-.35-8.59Z"/>
    <path class="cls-1" d="M48.67,265.75c-.98,0-1.98,.02-2.98,.06-1.01,.04-1.96,.11-2.85,.19v-.37c.89-.32,1.65-.81,2.29-1.46,.62-.65,.97-1.4,1.02-2.3,.04-2.14,.06-4.28,.06-6.43v-6.42c0-2.1-.03-4.31-.1-6.61-.07-2.3-.18-4.5-.32-6.61-.05-.85-.27-1.68-.66-2.51-.4-.83-1.28-1.61-2.64-2.34v-.23c.93,.07,1.93,.14,2.98,.17,1.05,.04,2.07,.06,3.06,.06s1.97-.03,2.98-.09c1.01-.06,2-.11,2.99-.14v.23c-1.18,.44-1.95,1.16-2.32,2.15-.38,1-.61,1.93-.7,2.82-.14,1.13-.23,2.31-.25,3.55-.02,1.23-.03,2.47-.03,3.73v5.69c0,2.11,.05,4.23,.14,6.37,.09,2.14,.19,4.26,.27,6.35,.1,.89,.41,1.69,.92,2.4,.51,.71,1.34,1.25,2.46,1.61v.37c-1.07-.08-2.14-.14-3.19-.19-1.05-.04-2.09-.06-3.12-.06Z"/>
    <path class="cls-1" d="M78.71,244.14c-1.13-2.74-2.38-5.67-3.76-8.78-1.38-3.12-2.7-6.05-3.97-8.8-.47-1.1-1.01-2.18-1.64-3.21-.63-1.02-1.84-1.99-3.62-2.88l-.07-.48c.98,.05,2,.13,3.05,.24,1.05,.1,2.1,.16,3.12,.16,.93,0,1.9-.03,2.92-.08,1-.04,2.02-.1,3.05-.15l.21,.47c-.47,.26-.81,.67-1.02,1.19-.21,.53-.31,1.08-.31,1.67,0,1.16,.21,2.29,.63,3.39,.98,2.75,2.09,5.6,3.33,8.56,1.24,2.96,2.38,5.76,3.41,8.4,.93,2.27,1.9,4.52,2.91,6.77,1.01,2.25,2,4.5,2.98,6.77h.56c.8-1.95,1.6-3.91,2.43-5.86,.82-1.95,1.62-3.93,2.42-5.94,1.17-2.74,2.35-5.81,3.55-9.18,1.19-3.38,2.31-6.45,3.34-9.19,.23-.53,.43-1.11,.59-1.74,.17-.64,.25-1.27,.25-1.9,0-.74-.18-1.4-.56-1.98-.38-.59-1.13-.98-2.25-1.19l.21-.4c.89,.05,1.84,.12,2.84,.2,1.01,.07,2.02,.11,3.06,.11,.93,0,1.92-.04,2.94-.11,1.03-.08,2.08-.15,3.17-.2l-.14,.4c-1.4,.58-2.58,1.52-3.51,2.81-.94,1.3-1.72,2.52-2.32,3.68-1.27,2.64-2.5,5.47-3.72,8.48-1.22,3-2.36,5.81-3.44,8.39-.57,1.37-1.16,2.78-1.8,4.24-.63,1.46-1.33,3.05-2.1,4.79-.77,1.74-1.61,3.7-2.53,5.86-.91,2.16-1.93,4.67-3.05,7.52-.15,.43-.38,.64-.7,.64-.28,0-.56-.29-.84-.87-.56-1.37-1.26-3.02-2.11-4.95-.85-1.92-1.72-3.91-2.63-5.94-.91-2.04-1.8-4.01-2.67-5.94-.87-1.92-1.6-3.58-2.21-4.95Z"/>
    <path class="cls-1" d="M134.59,226.56l13.62,33.5c1.08,2.75,2.79,4.59,5.13,5.54v.4c-2.11-.32-4.19-.48-6.25-.48-2.25,0-4.45,.16-6.6,.48v-.32c0-.53,.29-1.08,.88-1.67,.59-.58,.88-1.23,.88-1.98,0-.79-.17-1.5-.5-2.13l-4.35-11.88c-1.22-.1-2.46-.2-3.73-.28-1.26-.07-2.52-.11-3.79-.11s-2.62,.04-3.93,.11c-1.31,.08-2.6,.18-3.86,.28l-5.05,12.91c-.19,.47-.36,.91-.49,1.31-.14,.39-.21,.8-.21,1.22,0,.68,.35,1.43,1.05,2.22v.32c-.8-.11-1.57-.19-2.32-.24-.75-.06-1.52-.08-2.32-.08s-1.68,.02-2.52,.08c-.84,.05-1.66,.13-2.46,.24l.35-.32c1.31-.42,2.49-1.13,3.55-2.13,1.06-1.01,1.91-2.25,2.56-3.73l13.76-32.47c.09-.42,.14-.74,.14-.95,.05-1.05-.36-2.15-1.22-3.28-.87-1.13-1.89-2.1-3.06-2.89l-.14-.4c.89,.05,1.99,.11,3.3,.16,1.31,.05,2.46,.08,3.44,.08h1.54l2.6,6.49Zm1.62,18.85v-.32l-5.98-15.59h-.13l-6.6,15.59v.32c1.03,.04,2.07,.08,3.12,.11,1.06,.03,2.12,.04,3.2,.04s2.08,0,3.16-.04c1.07-.03,2.15-.07,3.23-.11Z"/>
    <path class="cls-1" d="M190.47,219.12c-.19,1-.69,2.19-1.51,3.57-.82,1.37-1.34,2.64-1.58,3.8-.1,.26-.21,.44-.35,.52-.15,.07-.26,.11-.35,.11-.18,0-.29-.28-.29-.83s-.04-1.09-.13-1.63c-.14-.53-.53-.93-1.16-1.22-.63-.29-1.18-.46-1.65-.51-1.59-.06-3.26-.08-5.02-.08h-5.01l-.35,3.96c-.1,1.53-.16,3.09-.18,4.67-.03,1.58-.03,3.2-.03,4.83v7.44c0,2.79,.03,5.57,.1,8.32,.07,2.74,.2,5.52,.39,8.32,.04,1.16,.35,2.19,.88,3.09,.54,.9,1.37,1.61,2.49,2.14v.47c-1.08-.05-2.14-.12-3.2-.2-1.04-.08-2.11-.12-3.19-.12-.98,0-1.96,.04-2.94,.12-.98,.07-1.92,.14-2.81,.2v-.47c.89-.42,1.64-1.06,2.29-1.9,.63-.85,.94-1.86,.94-3.01,.04-2.79,.08-5.6,.11-8.39,.02-2.8,.03-5.6,.03-8.4s-.01-5.81-.03-9.03c-.03-3.22-.06-6.2-.11-8.95v-3.09c-1.92,0-3.82,.04-5.72,.12-1.89,.07-3.76,.33-5.58,.75-.6,.11-1.29,.32-2.07,.67-.77,.35-1.46,.76-2.07,1.23-.43,.37-.81,.73-1.16,1.07-.35,.34-.69,.51-1.02,.51-.28,0-.42-.11-.42-.32,.05-.47,.36-1.06,.94-1.78,.59-.71,1.02-1.38,1.3-2.02,.29-.58,.6-1.2,.95-1.86,.36-.66,.57-1.28,.66-1.86h.77c.29,.32,.67,.55,1.16,.71,.49,.16,1.21,.26,2.14,.32,2.34,.05,4.68,.08,7.02,.08h7.02c2.25,0,4.62-.04,7.13-.12,2.5-.08,4.94-.17,7.34-.28,.84,0,1.55-.12,2.14-.36,.58-.24,1.14-.44,1.65-.59h.5Z"/>
    <path class="cls-1" d="M248.32,226.64l4.91,33.34c.23,1.37,.81,2.55,1.72,3.52,.92,.98,1.98,1.71,3.2,2.18v.4c-1.03-.21-2.07-.36-3.12-.44-1.06-.08-2.1-.12-3.12-.12-1.12,0-2.25,.04-3.37,.12-1.13,.07-2.23,.23-3.31,.44v-.4c0-.21,.15-.39,.42-.56,.28-.16,.58-.35,.92-.59,.32-.23,.59-.55,.81-.95,.21-.4,.26-.94,.18-1.62l-3.87-28.12h-.27l-13.48,31.83c-.24,.42-.45,.63-.63,.63-.09,0-.19-.07-.28-.23s-.24-.35-.42-.56c-.19-.32-.43-.76-.71-1.34-.28-.58-.91-1.87-1.89-3.88-.99-2.01-2.46-5.03-4.42-9.07-1.96-4.04-4.73-9.7-8.29-16.98l-.49,.16-3.45,25.42c-.04,.21-.07,.59-.07,1.11,0,1.05,.24,1.98,.71,2.77,.47,.79,1.26,1.39,2.38,1.82l.14,.48c-.75-.11-1.8-.19-3.16-.24-1.35-.06-2.43-.08-3.22-.08-.85,0-1.69,.02-2.53,.08-.84,.05-1.66,.13-2.46,.24l.35-.32c1.31-.42,2.36-1.31,3.16-2.65,.8-1.34,1.29-2.84,1.48-4.47l4.56-32.79c.05-.95-.21-1.9-.77-2.84-.56-.95-1.47-1.85-2.73-2.7v-.4c.93,.05,1.84,.11,2.73,.16,.89,.05,1.85,.08,2.88,.08l16.7,35.87h1.06l12.63-29.38,2.73-6.49c.98,0,1.91-.03,2.78-.08,.86-.05,1.81-.13,2.84-.24v.4c-1.22,.58-2.1,1.53-2.67,2.85-.56,1.31-.75,2.52-.56,3.63Z"/>
    <path class="cls-1" d="M295.63,226.56l13.62,33.5c1.08,2.75,2.78,4.59,5.12,5.54v.4c-2.11-.32-4.2-.48-6.25-.48-2.25,0-4.45,.16-6.6,.48v-.32c0-.53,.29-1.08,.87-1.67,.58-.58,.88-1.23,.88-1.98,0-.79-.16-1.5-.5-2.13l-4.35-11.88c-1.22-.1-2.46-.2-3.72-.28-1.27-.07-2.53-.11-3.79-.11s-2.62,.04-3.93,.11c-1.31,.08-2.6,.18-3.86,.28l-5.05,12.91c-.19,.47-.35,.91-.5,1.31-.14,.39-.21,.8-.21,1.22,0,.68,.35,1.43,1.05,2.22v.32c-.8-.11-1.57-.19-2.32-.24-.75-.06-1.52-.08-2.32-.08-.84,0-1.68,.02-2.53,.08-.84,.05-1.66,.13-2.46,.24l.36-.32c1.31-.42,2.49-1.13,3.54-2.13,1.05-1.01,1.91-2.25,2.56-3.73l13.76-32.47c.1-.42,.14-.74,.14-.95,.05-1.05-.37-2.15-1.23-3.28-.86-1.13-1.89-2.1-3.06-2.89l-.14-.4c.9,.05,1.99,.11,3.3,.16,1.31,.05,2.46,.08,3.44,.08h1.54l2.6,6.49Zm1.61,18.85v-.32l-5.96-15.59h-.14l-6.6,15.59v.32c1.03,.04,2.07,.08,3.12,.11,1.05,.03,2.12,.04,3.2,.04s2.08,0,3.15-.04c1.08-.03,2.16-.07,3.23-.11Z"/>
    <g>
      <path class="cls-2" d="M163.92,168.43c-1.63-6.85-3.24-18.28-4.97-24.29-2.11-7.32-11.16-25.9-10.63-31.76,.38-4.01,1.81-7.96,4.21-11.41,2.2-3.14,4.3-6.36,6.4-9.56,1.24-1.89,2.47-3.8,3.01-6.04,.11-.47,.36-1.01,.91-.96,.55,.04,.59,.54,.74,1.07,.54,1.97,1.66,3.7,2.77,5.41,1.97,3.03,3.89,6.11,6.02,9.04,2.32,3.16,4.88,8.78,4.88,12.68,0,8.44-7.93,25.38-9.19,30.54-2.33,9.5-3.37,21.76-4.16,25.29Zm-1.1-77.59c-1.65,4.87-4.28,9.11-6.96,13.36-2.57,4.09-3.35,10.59-2.02,15.14,1.11,3.81,3.77,8.4,8.98,8.4,3.77-.7,8.54-5.23,9.68-9.03,1.36-4.55-.2-10.32-2.74-14.43-2.65-4.29-4.98-8.7-6.94-13.43Z"/>
      <g>
        <path class="cls-2" d="M166.27,168.43c2.05-5.01,3.78-51.58,32.5-58.63,1.07-.4,1.61-.38,1.8,.99,.71,5.02,.08,9.89-1.26,14.73-1.33,4.83-3.28,9.4-5.71,13.76-5.32,9.53-25.13,28.27-27.33,29.14Z"/>
        <path class="cls-2" d="M168.08,172.45c5.65-8.85,22.23-28.31,49.81-27.77,1.12,.02,1.19,.46,.76,1.38-2.24,4.82-5.79,8.58-9.81,11.91-8.35,6.89-17.81,11.57-28.37,14.01-4.07,.93-9.54,1.17-12.39,.48Z"/>
      </g>
      <path class="cls-2" d="M159.07,164.71c.1,.13,.2,.27,0,.38-.04,.03-.17-.07-.26-.12,.09-.09,.18-.17,.26-.26Z"/>
      <path class="cls-2" d="M157.61,115.32c.03-2.25,.65-4.27,2.4-5.8,1.9-1.65,4.37-1.5,6.1,.31,2.63,2.74,2.56,8.14-.12,10.82-2.07,2.07-4.94,1.93-6.79-.35-1.18-1.45-1.61-3.14-1.59-4.98Z"/>
      <g>
        <path class="cls-2" d="M161.09,168.43c-2.05-5.01-3.77-51.58-32.51-58.63-1.07-.4-1.6-.38-1.8,.99-.71,5.02-.07,9.89,1.27,14.73,1.32,4.83,3.28,9.4,5.72,13.76,5.31,9.53,25.13,28.27,27.32,29.14Z"/>
        <path class="cls-2" d="M159.29,172.45c-5.66-8.85-22.24-28.31-49.82-27.77-1.13,.02-1.19,.46-.76,1.38,2.24,4.82,5.79,8.58,9.81,11.91,8.35,6.89,17.8,11.57,28.37,14.01,4.07,.93,9.54,1.17,12.39,.48Z"/>
      </g>
    </g>
    <g>
      <path class="cls-3" d="M192.89,179.83c-43.11,13.89-89.06-9-102.63-51.13-13.57-42.13,10.38-87.54,53.49-101.42,12.42-4.01,25.08-4.95,37.13-3.27-16.04-4.32-33.57-4.2-50.68,1.31-46.35,14.94-72.09,63.75-57.51,109.04,14.59,45.29,63.99,69.89,110.34,54.95,17.12-5.51,31.41-15.65,41.91-28.52-8.8,8.42-19.62,15.03-32.05,19.03Z"/>
      <path class="cls-3" d="M56.06,219.59c0,2.42-1.96,4.39-4.38,4.39s-4.39-1.97-4.39-4.39,1.97-4.39,4.39-4.39,4.38,1.97,4.38,4.39Z"/>
      <polygon class="cls-3" points="162.78 47.17 164.37 55.38 172.67 54.35 165.35 58.41 168.9 65.98 162.78 60.27 156.67 65.98 160.21 58.41 152.89 54.35 161.19 55.38 162.78 47.17"/>
    </g>
  </g>
  <g>
    <path class="cls-3" d="M27.83,291.72l-6.04,10.34v5.88h-3v-5.88l-6.07-10.34h3.34l4.23,7.96,4.23-7.96h3.31Z"/>
    <path class="cls-3" d="M44.34,307.05c-1.43-.71-2.56-1.7-3.39-2.97-.83-1.27-1.25-2.7-1.25-4.28s.42-3.01,1.25-4.27c.83-1.26,1.96-2.24,3.39-2.95,1.43-.71,2.99-1.06,4.69-1.06s3.29,.35,4.72,1.06c1.43,.71,2.55,1.69,3.38,2.95,.82,1.26,1.23,2.68,1.23,4.27s-.41,3.02-1.23,4.28c-.82,1.27-1.95,2.26-3.38,2.97-1.43,.71-3,1.06-4.72,1.06s-3.26-.35-4.69-1.06Zm7.92-1.98c.95-.49,1.69-1.19,2.22-2.1,.53-.91,.8-1.96,.8-3.16s-.27-2.25-.8-3.15c-.54-.9-1.27-1.6-2.22-2.08-.95-.48-2.02-.72-3.23-.72s-2.29,.24-3.23,.72c-.95,.48-1.69,1.18-2.22,2.08-.53,.9-.8,1.95-.8,3.15s.27,2.25,.8,3.16c.53,.91,1.28,1.61,2.22,2.1,.95,.49,2.02,.74,3.23,.74s2.29-.24,3.23-.74Z"/>
    <path class="cls-3" d="M85.03,296.39c-.47-.81-1.13-1.42-1.97-1.83-.84-.41-1.81-.62-2.92-.62-1.21,0-2.29,.24-3.23,.72-.95,.48-1.69,1.17-2.22,2.05-.53,.89-.8,1.91-.8,3.08s.27,2.2,.8,3.09c.53,.89,1.28,1.58,2.22,2.07,.95,.48,2.02,.72,3.23,.72,1.63,0,2.95-.4,3.97-1.21,1.02-.81,1.64-1.91,1.87-3.29h-6.86v-2.12h10.06v2.08c-.19,1.26-.7,2.42-1.51,3.48-.81,1.06-1.87,1.9-3.18,2.53-1.3,.63-2.76,.94-4.35,.94-1.72,0-3.28-.35-4.7-1.06-1.42-.71-2.54-1.69-3.38-2.95-.83-1.26-1.25-2.69-1.25-4.27s.42-3.01,1.25-4.27c.83-1.26,1.96-2.24,3.39-2.95,1.43-.71,2.99-1.06,4.69-1.06,1.94,0,3.68,.42,5.19,1.27,1.52,.85,2.62,2.05,3.3,3.61h-3.6Z"/>
    <path class="cls-3" d="M113.65,304.63h-7.65l-1.31,3.31h-3.13l6.54-16.25h3.47l6.54,16.25h-3.15l-1.31-3.31Zm-.84-2.17l-2.97-7.54-3,7.54h5.97Z"/>
    <path class="cls-3" d="M151.8,291.72v16.22h-3v-16.22h3Z"/>
    <path class="cls-3" d="M179.79,291.72l-6.04,10.34v5.88h-3v-5.88l-6.07-10.34h3.34l4.23,7.96,4.23-7.96h3.31Z"/>
    <path class="cls-3" d="M195.66,293.87v4.76h6.31v2.17h-6.31v4.97h7.1v2.17h-10.09v-16.25h10.09v2.17h-7.1Z"/>
    <path class="cls-3" d="M231.95,307.95h-3l-9.01-12.12v12.12h-3v-16.25h3l9.01,12.09v-12.09h3v16.25Z"/>
    <path class="cls-3" d="M259.62,296.39c-.47-.81-1.13-1.42-1.97-1.83-.84-.41-1.81-.62-2.92-.62-1.21,0-2.29,.24-3.23,.72-.95,.48-1.69,1.17-2.22,2.05-.53,.89-.8,1.91-.8,3.08s.27,2.2,.8,3.09c.53,.89,1.28,1.58,2.22,2.07,.95,.48,2.02,.72,3.23,.72,1.63,0,2.95-.4,3.97-1.21,1.02-.81,1.64-1.91,1.87-3.29h-6.86v-2.12h10.06v2.08c-.19,1.26-.7,2.42-1.51,3.48-.81,1.06-1.87,1.9-3.18,2.53-1.3,.63-2.76,.94-4.35,.94-1.72,0-3.28-.35-4.7-1.06-1.42-.71-2.54-1.69-3.38-2.95-.83-1.26-1.25-2.69-1.25-4.27s.42-3.01,1.25-4.27c.83-1.26,1.96-2.24,3.39-2.95,1.43-.71,2.99-1.06,4.69-1.06,1.94,0,3.67,.42,5.19,1.27,1.52,.85,2.62,2.05,3.3,3.61h-3.6Z"/>
    <path class="cls-3" d="M288.23,304.63h-7.65l-1.31,3.31h-3.13l6.54-16.25h3.47l6.54,16.25h-3.15l-1.31-3.31Zm-.84-2.17l-2.97-7.54-3,7.54h5.97Z"/>
    <path class="cls-3" d="M315.54,307.95l-4.21-6.49h-2.29v6.49h-3v-16.22h6.31c1.4,0,2.59,.22,3.56,.65,.97,.44,1.7,1.02,2.18,1.75,.48,.73,.72,1.55,.72,2.45,0,1.06-.35,2.02-1.04,2.88-.69,.86-1.76,1.45-3.19,1.76l4.52,6.72h-3.57Zm-6.49-8.61h3.31c1.12,0,1.97-.25,2.54-.75,.57-.5,.85-1.17,.85-2.01s-.28-1.5-.84-1.97-1.41-.71-2.55-.71h-3.31v5.44Z"/>
  </g>
</svg>